<svg width="120" height="120" viewBox="0 0 120 120" fill="none" xmlns="http://www.w3.org/2000/svg">
<path d="M85.0448 26.6666H30.8783C26.2759 26.6666 22.5449 30.3976 22.5449 35V89.1666C22.5449 93.7691 26.2759 97.5 30.8783 97.5H85.0448C89.6473 97.5 93.3781 93.7691 93.3781 89.1666V35C93.3781 30.3976 89.6473 26.6666 85.0448 26.6666Z" fill="#CBDFFF"/>
<path fill-rule="evenodd" clip-rule="evenodd" d="M64.252 25.4584C64.252 23.2492 66.0428 21.4584 68.252 21.4584H94.5853C96.7944 21.4584 98.5853 23.2492 98.5853 25.4584V51.75C98.5853 53.9592 96.7944 55.75 94.5853 55.75H92.1686C89.9595 55.75 88.1686 53.9592 88.1686 51.75V35.875C88.1686 33.6659 86.3778 31.875 84.1686 31.875H68.2519C66.0428 31.875 64.252 30.0842 64.252 27.875V25.4584Z" fill="#5096FF"/>
<path fill-rule="evenodd" clip-rule="evenodd" d="M64.2116 55.8752C62.176 53.8427 62.1736 50.5448 64.2062 48.5093L86.0123 26.6719C88.0449 24.6365 91.3426 24.6341 93.3781 26.6666C95.4136 28.6991 95.416 31.997 93.3834 34.0325L71.5773 55.8699C69.5448 57.9053 66.2471 57.9077 64.2116 55.8752Z" fill="#5096FF"/>
</svg>
