<svg width="120" height="120" viewBox="0 0 120 120" fill="none" xmlns="http://www.w3.org/2000/svg">
<path d="M98.9527 31.1343C97.7127 34.5244 98.0112 37.7331 99.6048 40.9473C102.552 46.8901 103.95 53.2159 103.999 59.8459C104.023 63.5897 103.572 67.2785 102.644 70.8995C96.7528 93.8534 73.7191 108.066 50.5772 102.963C39.739 100.573 30.9779 94.8338 24.4607 85.8619C17.1998 75.8656 14.6427 64.636 16.6723 52.4847C18.4728 41.7041 23.7885 32.8257 32.2491 25.9281C41.6623 18.2536 52.5079 15.0871 64.5807 16.225C69.7223 16.7088 74.6313 18.1455 79.2527 20.4636C82.3757 22.0304 85.5208 22.2338 88.8069 21.0537C91.3859 20.1264 94.0034 19.3091 96.599 18.4295C98.1724 17.8963 99.625 18.0154 100.823 19.2542C101.993 20.4636 102.067 21.893 101.545 23.4268C100.671 25.9941 99.8851 28.5908 98.9527 31.1361L98.9527 31.1343Z" fill="#66BAFF"/>
<path d="M47.0037 51.5657C49.7351 51.5657 51.9493 55.3807 51.9493 60.0868C51.9493 64.7929 49.7351 68.6079 47.0037 68.6079C44.2723 68.6079 42.0581 64.7929 42.0581 60.0868C42.0581 55.3807 44.2723 51.5657 47.0037 51.5657Z" fill="#28323C"/>
<path d="M73.1985 51.5653C75.9299 51.5653 78.1442 55.3803 78.1442 60.0864C78.1442 64.7925 75.9299 68.6075 73.1985 68.6075C70.4672 68.6075 68.2529 64.7925 68.2529 60.0864C68.2529 55.3803 70.4672 51.5653 73.1985 51.5653Z" fill="#28323C"/>
</svg>
