<svg width="120" height="120" viewBox="0 0 120 120" fill="none" xmlns="http://www.w3.org/2000/svg">
<path d="M25.5122 22.8582C23.0607 22.8582 20.7095 23.8322 18.9759 25.5657C17.2424 27.2992 16.2686 29.6502 16.2686 32.1018V43.98H104.083V41.3455C104.083 38.8939 103.109 36.5429 101.376 34.8094C99.6427 33.0758 97.2915 32.1018 94.8396 32.1018H53.2431L46.6803 25.5389C44.9472 23.8199 42.6044 22.8562 40.1635 22.8582H25.5122Z" fill="#5096FF"/>
<path d="M16.083 44.0715H103.898V83.3572C103.898 85.8086 102.924 88.1597 101.19 89.8934C99.4573 91.627 97.1057 92.6008 94.6543 92.6008H25.3267C22.8751 92.6008 20.5241 91.627 18.7906 89.8934C17.057 88.1597 16.083 85.8086 16.083 83.3572V44.0715Z" fill="#A7D0FF"/>
</svg>
