<svg width="120" height="120" viewBox="0 0 120 120" fill="none" xmlns="http://www.w3.org/2000/svg">
<path d="M96.2181 58.9284L48.9681 109.553C48.4674 110.088 47.8064 110.445 47.085 110.571C46.3636 110.696 45.6208 110.584 44.9688 110.251C44.3168 109.917 43.7909 109.381 43.4705 108.722C43.1501 108.064 43.0526 107.319 43.1926 106.6L49.3773 75.6642L25.0646 66.5348C24.5425 66.3395 24.0769 66.0179 23.7093 65.5987C23.3418 65.1796 23.0839 64.6759 22.9585 64.1327C22.8331 63.5895 22.8443 63.0236 22.991 62.4858C23.1376 61.948 23.4153 61.4548 23.799 61.0505L71.049 10.4255C71.5497 9.8911 72.2107 9.53409 72.9321 9.40831C73.6535 9.28253 74.3963 9.39481 75.0483 9.7282C75.7003 10.0616 76.2262 10.598 76.5466 11.2565C76.867 11.915 76.9645 12.6598 76.8245 13.3786L70.6229 44.3484L94.9356 53.4652C95.4539 53.6618 95.9158 53.983 96.2804 54.4006C96.6451 54.8181 96.9013 55.319 97.0264 55.859C97.1515 56.3991 97.1417 56.9616 96.9977 57.497C96.8538 58.0323 96.5802 58.5239 96.2012 58.9284H96.2181Z" fill="#5096FF"/>
</svg>
