<svg width="120" height="120" viewBox="0 0 120 120" fill="none" xmlns="http://www.w3.org/2000/svg">
<path fill-rule="evenodd" clip-rule="evenodd" d="M65.6733 25.6655V70.1254H54.4233V25.6655H65.6733Z" fill="#CBDFFF"/>
<path fill-rule="evenodd" clip-rule="evenodd" d="M67.8489 66.0602L31.4884 90.3003L25.248 80.9399L61.6088 56.6997L67.8489 66.0602Z" fill="#CBDFFF"/>
<path fill-rule="evenodd" clip-rule="evenodd" d="M58.4886 56.6997L94.8491 80.9399L88.6089 90.3003L52.248 66.0602L58.4886 56.6997Z" fill="#CBDFFF"/>
<path d="M73.5482 42V24C73.5482 21.5147 71.5335 19.5 69.0482 19.5H51.0482C48.5631 19.5 46.5483 21.5147 46.5483 24V42C46.5483 44.4853 48.5631 46.5 51.0482 46.5H69.0482C71.5335 46.5 73.5482 44.4853 73.5482 42Z" fill="#5096FF"/>
<path d="M46.5483 96V78C46.5483 75.5147 44.5336 73.5 42.0483 73.5H24.0483C21.5631 73.5 19.5483 75.5147 19.5483 78V96C19.5483 98.4853 21.5631 100.5 24.0483 100.5H42.0483C44.5336 100.5 46.5483 98.4853 46.5483 96Z" fill="#5096FF"/>
<path d="M100.548 96V78C100.548 75.5147 98.5337 73.5 96.0483 73.5H78.0483C75.5634 73.5 73.5483 75.5147 73.5483 78V96C73.5483 98.4853 75.5634 100.5 78.0483 100.5H96.0483C98.5337 100.5 100.548 98.4853 100.548 96Z" fill="#5096FF"/>
</svg>
