<svg width="28" height="28" viewBox="0 0 28 28" fill="none" xmlns="http://www.w3.org/2000/svg">
<path d="M26.394 4.81548C25.9995 5.89416 26.0945 6.91511 26.6015 7.93782C27.5393 9.82871 27.984 11.8415 27.9997 13.951C28.0073 15.1422 27.8639 16.3159 27.5684 17.4681C25.6941 24.7716 18.3652 29.2939 11.0019 27.67C7.55332 26.9097 4.76571 25.0835 2.69204 22.2288C0.381756 19.0482 -0.431857 15.4751 0.213904 11.6088C0.786813 8.17863 2.47815 5.35366 5.17018 3.15899C8.16528 0.717099 11.6161 -0.290441 15.4575 0.0716444C17.0935 0.225573 18.6554 0.682699 20.1259 1.42028C21.1196 1.9188 22.1203 1.98352 23.1658 1.60803C23.9864 1.31299 24.8193 1.05295 25.6451 0.773075C26.1458 0.603401 26.6079 0.6413 26.9891 1.03546C27.3615 1.42028 27.3848 1.87507 27.2187 2.3631C26.9407 3.17998 26.6907 4.00619 26.394 4.81607L26.394 4.81548Z" fill="#66BAFF"/>
<path d="M9.86511 11.316C10.7342 11.316 11.4387 12.5299 11.4387 14.0273C11.4387 15.5246 10.7342 16.7385 9.86511 16.7385C8.99603 16.7385 8.2915 15.5246 8.2915 14.0273C8.2915 12.5299 8.99603 11.316 9.86511 11.316Z" fill="#28323C"/>
<path d="M18.2001 11.316C19.0691 11.316 19.7737 12.5299 19.7737 14.0273C19.7737 15.5246 19.0691 16.7385 18.2001 16.7385C17.331 16.7385 16.6265 15.5246 16.6265 14.0273C16.6265 12.5299 17.331 11.316 18.2001 11.316Z" fill="#28323C"/>
</svg>
