<svg width="200" height="200" viewBox="0 0 200 200" fill="none" xmlns="http://www.w3.org/2000/svg">
<g clip-path="url(#clip0_33_10031)">
<path d="M92.7662 38.8887V99.5818L69.0603 113.412L60.992 118.108L30.7512 135.749V75.0562L60.992 57.415L69.0603 52.7189L92.7662 38.8887Z" fill="#CDCDCD"/>
<g style="mix-blend-mode:multiply">
<path d="M92.7666 171.917L128.52 177.473L190.742 135.024L161.974 118.452L155.208 117.014L92.7666 171.917Z" fill="#CDCDCD"/>
</g>
<path d="M61.7587 93.1394L53.7026 88.4433L30.7512 75.0557V135.749L53.7026 149.124L61.7587 153.833L92.7662 171.916V111.223L61.7587 93.1394Z" fill="#F1F3F4"/>
<path d="M123.774 56.9724L115.718 52.264L92.7666 38.8887V99.5818L115.718 112.957L123.774 117.666L154.782 135.749V75.0562L123.774 56.9724Z" fill="#EDEFF0"/>
<path d="M154.782 75.0557V135.749L131.064 149.579L123.007 154.275L92.7666 171.916V111.223L123.007 93.582L131.064 88.8859L154.782 75.0557Z" fill="#DCDEDF"/>
<path d="M61.7565 93.14V153.833L53.7004 149.125V88.4438L61.7565 93.14Z" fill="#B9BFC1"/>
<path d="M153.916 77.1831L93.8964 112.195C93.7382 112.281 93.6165 112.232 93.6165 112.072C93.6165 111.912 93.7382 111.716 93.8964 111.63L153.916 76.6176C154.074 76.5315 154.195 76.5807 154.195 76.7405C154.195 76.9003 154.074 77.097 153.916 77.1831Z" fill="#8F6E4F"/>
<path d="M131.063 88.8867V149.58L123.007 154.276V93.5828L131.063 88.8867Z" fill="#B9BFC1"/>
<path d="M30.7506 75.0562L53.921 88.579L61.9893 93.2752L92.7656 111.224L71.2745 141.576L9.25952 105.397L30.7506 75.0562Z" fill="#F5F6F7"/>
<path d="M92.7666 38.8887L115.718 49.7807L177.733 85.9483L154.782 75.0562L92.7666 38.8887Z" fill="#F5F6F7"/>
<path d="M92.7656 38.8887L71.2745 49.2644L9.25952 85.432L30.7506 75.0562L92.7656 38.8887Z" fill="#F5F6F7"/>
<path d="M154.782 75.0557L131.611 88.5785L123.555 93.2747H123.543L92.7666 111.223L114.915 139.216L176.93 103.048L154.782 75.0557Z" fill="#F5F6F7"/>
<path d="M92.7643 99.582L102.658 105.348L92.7643 111.224L82.8706 105.348L92.7643 99.582Z" fill="#C4C2BF"/>
</g>
<defs>
<clipPath id="clip0_33_10031">
<rect width="181.481" height="138.585" fill="white" transform="translate(9.25952 38.8887)"/>
</clipPath>
</defs>
</svg>
