<svg width="516" height="160" viewBox="0 0 516 160" fill="none" xmlns="http://www.w3.org/2000/svg"
  preserveAspectRatio="none">
  <rect width="516" height="160" fill="#F4F6F8"></rect>
  <path
    d="M233.7 75.0778V56.4539C233.7 55.2919 234.639 54.35 235.801 54.35H263.674C274.776 54.35 282.3 64.1811 282.3 73.39C282.3 80.7571 277.869 84.4725 274.498 88.3303L280.871 101.743C281.535 103.139 280.517 104.75 278.971 104.75H262.638C262.354 104.75 262.082 104.635 261.884 104.432L233.998 75.8119C233.807 75.6155 233.7 75.3521 233.7 75.0778Z"
    fill="#E0E0E0"></path>
  <path
    d="M233.7 102.646V84.4198C233.7 83.9512 234.267 83.7166 234.598 84.0479L254.402 103.852C254.733 104.183 254.499 104.75 254.03 104.75H235.804C234.642 104.75 233.7 103.808 233.7 102.646Z"
    fill="#E0E0E0"></path>
</svg>