<svg width="48" height="48" viewBox="0 0 48 48" fill="none" xmlns="http://www.w3.org/2000/svg">
<g clip-path="url(#clip0_75_855)">
<g clip-path="url(#clip1_75_855)">
<path d="M11.4091 39.2766V7.25293H6.072C5.60017 7.25293 5.14767 7.44037 4.81403 7.77402C4.4804 8.10766 4.29297 8.56018 4.29297 9.03203V46.393C4.29297 46.8649 4.4804 47.3174 4.81403 47.651C5.14767 47.9847 5.60017 48.1721 6.072 48.1721H35.3192C35.7911 48.1721 36.2436 47.9847 36.5772 47.651C36.9108 47.3174 37.0983 46.8649 37.0983 46.393V41.0557H13.1881C12.7163 41.0557 12.2638 40.8683 11.9302 40.5347C11.5965 40.201 11.4091 39.7485 11.4091 39.2766Z" fill="#0070F6"/>
<path d="M42.4316 0.171875H13.1843C12.7125 0.171875 12.26 0.359315 11.9263 0.69296C11.5927 1.02661 11.4053 1.47912 11.4053 1.95097V7.28826H35.3154C35.7873 7.28826 36.2398 7.4757 36.5734 7.80934C36.907 8.14299 37.0945 8.59551 37.0945 9.06735V41.0911H42.4316C42.9034 41.0911 43.3559 40.9036 43.6895 40.57C44.0232 40.2363 44.2106 39.7838 44.2106 39.312V1.95097C44.2106 1.47912 44.0232 1.02661 43.6895 0.69296C43.3559 0.359315 42.9034 0.171875 42.4316 0.171875Z" fill="#529CF4"/>
<path d="M35.3154 7.28809H11.4053V39.3118C11.4053 39.7836 11.5927 40.2362 11.9263 40.5698C12.26 40.9035 12.7125 41.0909 13.1843 41.0909H37.0945V9.06718C37.0945 8.59534 36.907 8.14282 36.5734 7.80917C36.2398 7.47553 35.7873 7.28809 35.3154 7.28809Z" fill="#75B0F7"/>
<path d="M30.1231 15.1523H18.3815C17.4481 15.1523 16.6914 15.909 16.6914 16.8425V16.8603C16.6914 17.7937 17.4481 18.5504 18.3815 18.5504H30.1231C31.0565 18.5504 31.8132 17.7937 31.8132 16.8603V16.8425C31.8132 15.909 31.0565 15.1523 30.1231 15.1523Z" fill="white"/>
<path d="M30.1231 22.4819H18.3815C17.4481 22.4819 16.6914 23.2386 16.6914 24.1721V24.1899C16.6914 25.1233 17.4481 25.88 18.3815 25.88H30.1231C31.0565 25.88 31.8132 25.1233 31.8132 24.1899V24.1721C31.8132 23.2386 31.0565 22.4819 30.1231 22.4819Z" fill="white"/>
<path d="M26.0847 29.7939H18.3815C17.4481 29.7939 16.6914 30.5506 16.6914 31.4841V31.5019C16.6914 32.4353 17.4481 33.192 18.3815 33.192H26.0847C27.0181 33.192 27.7748 32.4353 27.7748 31.5019V31.4841C27.7748 30.5506 27.0181 29.7939 26.0847 29.7939Z" fill="white"/>
</g>
</g>
<defs>
<clipPath id="clip0_75_855">
<rect width="48" height="48" fill="white"/>
</clipPath>
<clipPath id="clip1_75_855">
<rect width="39.9214" height="48" fill="white" transform="translate(4.29395 0.171875)"/>
</clipPath>
</defs>
</svg>
