<svg width="80" height="96" viewBox="0 0 80 96" fill="none" xmlns="http://www.w3.org/2000/svg">
<g clip-path="url(#clip0_68_9844)">
<path d="M14.2328 78.2091V14.1616H3.5582C2.61451 14.1616 1.70946 14.5365 1.04217 15.2038C0.374881 15.8711 0 16.7761 0 17.7198V92.4418C0 93.3855 0.374881 94.2906 1.04217 94.9578C1.70946 95.6251 2.61451 96 3.5582 96H62.055C62.9987 96 63.9037 95.6251 64.571 94.9578C65.2383 94.2906 65.6132 93.3855 65.6132 92.4418V81.7673H17.791C16.8473 81.7673 15.9423 81.3924 15.275 80.7251C14.6077 80.0578 14.2328 79.1527 14.2328 78.2091Z" fill="#C8C8C8"/>
<path d="M76.2879 0H17.7911C16.8474 0 15.9424 0.37488 15.2751 1.04217C14.6078 1.70946 14.2329 2.6145 14.2329 3.55819V14.2328H62.0551C62.9988 14.2328 63.9038 14.6076 64.5711 15.2749C65.2384 15.9422 65.6133 16.8473 65.6133 17.791V81.8384H76.2879C77.2316 81.8384 78.1366 81.4635 78.8039 80.7962C79.4712 80.1289 79.8461 79.2239 79.8461 78.2802V3.55819C79.8461 2.6145 79.4712 1.70946 78.8039 1.04217C78.1366 0.37488 77.2316 0 76.2879 0Z" fill="#E0E0E0"/>
<path d="M62.0551 14.2324H14.2329V78.2799C14.2329 79.2236 14.6078 80.1286 15.2751 80.7959C15.9424 81.4632 16.8474 81.8381 17.7911 81.8381H65.6133V17.7906C65.6133 16.8469 65.2384 15.9419 64.5711 15.2746C63.9038 14.6073 62.9988 14.2324 62.0551 14.2324Z" fill="#D0D0D0"/>
<path d="M51.6652 29.96H28.1811C26.3142 29.96 24.8008 31.4734 24.8008 33.3402V33.3758C24.8008 35.2427 26.3142 36.7561 28.1811 36.7561H51.6652C53.5321 36.7561 55.0455 35.2427 55.0455 33.3758V33.3402C55.0455 31.4734 53.5321 29.96 51.6652 29.96Z" fill="white"/>
<path d="M51.6652 44.6201H28.1811C26.3142 44.6201 24.8008 46.1335 24.8008 48.0004V48.036C24.8008 49.9029 26.3142 51.4163 28.1811 51.4163H51.6652C53.5321 51.4163 55.0455 49.9029 55.0455 48.036V48.0004C55.0455 46.1335 53.5321 44.6201 51.6652 44.6201Z" fill="white"/>
<path d="M43.5881 59.2437H28.1811C26.3142 59.2437 24.8008 60.7571 24.8008 62.6239V62.6595C24.8008 64.5264 26.3142 66.0398 28.1811 66.0398H43.5881C45.455 66.0398 46.9684 64.5264 46.9684 62.6595V62.6239C46.9684 60.7571 45.455 59.2437 43.5881 59.2437Z" fill="white"/>
</g>
<defs>
<clipPath id="clip0_68_9844">
<rect width="79.846" height="96" fill="white"/>
</clipPath>
</defs>
</svg>
