<svg width="60" height="60" viewBox="0 0 60 60" fill="none" xmlns="http://www.w3.org/2000/svg">
<rect x="0.5" y="0.5" width="59" height="59" rx="11.5" fill="#F4F6F8"/>
<g clip-path="url(#clip0_72_2047)">
<path d="M21.1045 41.0494V18.0791H17.2761C16.9377 18.0791 16.6131 18.2136 16.3738 18.4529C16.1344 18.6922 16 19.0168 16 19.3552V46.154C16 46.4924 16.1344 46.817 16.3738 47.0563C16.6131 47.2956 16.9377 47.4301 17.2761 47.4301H38.2557C38.5942 47.4301 38.9188 47.2956 39.1581 47.0563C39.3974 46.817 39.5318 46.4924 39.5318 46.154V42.3256H22.3807C22.0422 42.3256 21.7176 42.1911 21.4783 41.9518C21.239 41.7125 21.1045 41.3879 21.1045 41.0494Z" fill="#0070F6"/>
<path d="M43.3602 13H22.3806C22.0422 13 21.7176 13.1344 21.4783 13.3738C21.2389 13.6131 21.1045 13.9377 21.1045 14.2761V18.1045H38.2557C38.5941 18.1045 38.9187 18.239 39.158 18.4783C39.3974 18.7176 39.5318 19.0422 39.5318 19.3807V42.351H43.3602C43.6987 42.351 44.0232 42.2165 44.2626 41.9772C44.5019 41.7379 44.6363 41.4133 44.6363 41.0749V14.2761C44.6363 13.9377 44.5019 13.6131 44.2626 13.3738C44.0232 13.1344 43.6987 13 43.3602 13Z" fill="#529CF4"/>
<path d="M38.2557 18.1045H21.1045V41.0748C21.1045 41.4133 21.2389 41.7379 21.4783 41.9772C21.7176 42.2165 22.0422 42.351 22.3806 42.351H39.5318V19.3806C39.5318 19.0422 39.3974 18.7176 39.158 18.4783C38.9187 18.2389 38.5941 18.1045 38.2557 18.1045Z" fill="#75B0F7"/>
<path d="M34.5293 23.7451H26.1069C25.4373 23.7451 24.8945 24.2879 24.8945 24.9574V24.9702C24.8945 25.6398 25.4373 26.1825 26.1069 26.1825H34.5293C35.1989 26.1825 35.7416 25.6398 35.7416 24.9702V24.9574C35.7416 24.2879 35.1989 23.7451 34.5293 23.7451Z" fill="white"/>
<path d="M34.5293 29.0029H26.1069C25.4373 29.0029 24.8945 29.5457 24.8945 30.2153V30.228C24.8945 30.8976 25.4373 31.4403 26.1069 31.4403H34.5293C35.1989 31.4403 35.7416 30.8976 35.7416 30.228V30.2153C35.7416 29.5457 35.1989 29.0029 34.5293 29.0029Z" fill="white"/>
<path d="M31.6325 34.2476H26.1069C25.4373 34.2476 24.8945 34.7903 24.8945 35.4599V35.4726C24.8945 36.1422 25.4373 36.685 26.1069 36.685H31.6325C32.302 36.685 32.8448 36.1422 32.8448 35.4726V35.4599C32.8448 34.7903 32.302 34.2476 31.6325 34.2476Z" fill="white"/>
</g>
<rect x="0.5" y="0.5" width="59" height="59" rx="11.5" stroke="#E6E8EB"/>
<defs>
<clipPath id="clip0_72_2047">
<rect width="28.6364" height="34.43" fill="white" transform="translate(16 13)"/>
</clipPath>
</defs>
</svg>
