<svg width="60" height="60" viewBox="0 0 60 60" fill="none" xmlns="http://www.w3.org/2000/svg">
<rect x="0.5" y="0.5" width="59" height="59" rx="11.5" fill="#F4F6F8"/>
<g clip-path="url(#clip0_72_2074)">
<path d="M44.6207 14H15.3793C14.6175 14 14 14.6175 14 15.3793V44.6207C14 45.3825 14.6175 46 15.3793 46H44.6207C45.3825 46 46 45.3825 46 44.6207V15.3793C46 14.6175 45.3825 14 44.6207 14Z" fill="#529CF4"/>
<path d="M39.6967 22.2622H20.2898C19.5662 22.2622 18.9795 22.8489 18.9795 23.5726V23.5863C18.9795 24.31 19.5662 24.8967 20.2898 24.8967H39.6967C40.4204 24.8967 41.0071 24.31 41.0071 23.5863V23.5726C41.0071 22.8489 40.4204 22.2622 39.6967 22.2622Z" fill="white"/>
<path d="M39.6967 27.9312H20.2898C19.5662 27.9312 18.9795 28.5178 18.9795 29.2415V29.2553C18.9795 29.979 19.5662 30.5656 20.2898 30.5656H39.6967C40.4204 30.5656 41.0071 29.979 41.0071 29.2553V29.2415C41.0071 28.5178 40.4204 27.9312 39.6967 27.9312Z" fill="white"/>
<path d="M24.2209 33.6143H20.2898C19.5662 33.6143 18.9795 34.2009 18.9795 34.9246V34.9384C18.9795 35.6621 19.5662 36.2487 20.2898 36.2487H24.2209C24.9446 36.2487 25.5312 35.6621 25.5312 34.9384V34.9246C25.5312 34.2009 24.9446 33.6143 24.2209 33.6143Z" fill="white"/>
<path d="M35.6413 23.1862L26.2758 32.5518C26.006 32.8178 25.8356 33.1683 25.7931 33.5449L25.5448 35.4345C25.534 35.5386 25.5465 35.6438 25.5815 35.7425C25.6165 35.8411 25.673 35.9307 25.747 36.0047C25.8211 36.0787 25.9106 36.1352 26.0093 36.1702C26.1079 36.2052 26.2131 36.2178 26.3172 36.2069L28.2069 35.9587C28.5804 35.9158 28.9295 35.7509 29.2 35.4897L38.5655 26.1104C38.8224 25.852 38.9666 25.5024 38.9666 25.138C38.9666 24.7736 38.8224 24.424 38.5655 24.1656L37.5862 23.1862C37.3277 22.9294 36.9782 22.7852 36.6138 22.7852C36.2494 22.7852 35.8998 22.9294 35.6413 23.1862Z" fill="#0070F6"/>
<path d="M42.1831 20.5669L41.2077 19.5915C40.6691 19.0529 39.7958 19.0529 39.2571 19.5915L38.2818 20.5669C37.7431 21.1055 37.7431 21.9788 38.2818 22.5175L39.2571 23.4928C39.7958 24.0315 40.6691 24.0315 41.2077 23.4928L42.1831 22.5175C42.7217 21.9788 42.7217 21.1055 42.1831 20.5669Z" fill="#0070F6"/>
</g>
<rect x="0.5" y="0.5" width="59" height="59" rx="11.5" stroke="#E6E8EB"/>
<defs>
<clipPath id="clip0_72_2074">
<rect width="32" height="32" fill="white" transform="translate(14 14)"/>
</clipPath>
</defs>
</svg>
