<svg width="60" height="60" viewBox="0 0 60 60" fill="none" xmlns="http://www.w3.org/2000/svg">
<rect x="0.5" y="0.5" width="59" height="59" rx="11.5" fill="#F4F6F8"/>
<path d="M46.7288 16.4619H13.2712C12.5691 16.4619 12 17.031 12 17.7331V42.267C12 42.9691 12.5691 43.5382 13.2712 43.5382H46.7288C47.4309 43.5382 48 42.9691 48 42.267V17.7331C48 17.031 47.4309 16.4619 46.7288 16.4619Z" fill="#9EC2FE"/>
<path d="M30.1021 21.2798H17.4283C16.7614 21.2798 16.2207 21.8205 16.2207 22.4874V22.5001C16.2207 23.1671 16.7614 23.7078 17.4283 23.7078H30.1021C30.769 23.7078 31.3097 23.1671 31.3097 22.5001V22.4874C31.3097 21.8205 30.769 21.2798 30.1021 21.2798Z" fill="#498DFF"/>
<path d="M30.1021 28.9956H17.4283C16.7614 28.9956 16.2207 29.5363 16.2207 30.2032V30.2159C16.2207 30.8829 16.7614 31.4236 17.4283 31.4236H30.1021C30.769 31.4236 31.3097 30.8829 31.3097 30.2159V30.2032C31.3097 29.5363 30.769 28.9956 30.1021 28.9956Z" fill="#498DFF"/>
<path d="M42.5724 36.7119H17.4283C16.7614 36.7119 16.2207 37.2526 16.2207 37.9195V37.9323C16.2207 38.5992 16.7614 39.1399 17.4283 39.1399H42.5724C43.2394 39.1399 43.78 38.5992 43.78 37.9323V37.9195C43.78 37.2526 43.2394 36.7119 42.5724 36.7119Z" fill="#498DFF"/>
<path d="M38.44 30.127C37.4695 30.127 36.5208 29.8393 35.7139 29.3001C34.907 28.7609 34.2781 27.9946 33.9067 27.098C33.5353 26.2014 33.4382 25.2148 33.6275 24.263C33.8168 23.3112 34.2841 22.4369 34.9704 21.7506C35.6566 21.0644 36.5309 20.5971 37.4827 20.4078C38.4345 20.2184 39.4211 20.3156 40.3177 20.687C41.2143 21.0584 41.9807 21.6873 42.5198 22.4942C43.059 23.3011 43.3468 24.2498 43.3468 25.2203C43.3468 26.5216 42.8298 27.7697 41.9096 28.6899C40.9894 29.6101 39.7413 30.127 38.44 30.127ZM38.44 21.7753C37.7556 21.7753 37.0866 21.9785 36.5177 22.359C35.9488 22.7394 35.5057 23.2802 35.2444 23.9127C34.983 24.5453 34.9153 25.2411 35.0498 25.9122C35.1842 26.5833 35.5148 27.1993 35.9996 27.6824C36.4844 28.1654 37.1017 28.4937 37.7733 28.6257C38.4448 28.7577 39.1404 28.6874 39.772 28.4237C40.4036 28.1601 40.9427 27.7149 41.3211 27.1447C41.6995 26.5744 41.9001 25.9046 41.8976 25.2203C41.8942 24.3054 41.5285 23.4292 40.8804 22.7836C40.2323 22.1379 39.3548 21.7753 38.44 21.7753Z" fill="#0449BB"/>
<path d="M43.0563 32.5423C42.9416 32.5413 42.8288 32.5132 42.7272 32.4601C42.6255 32.4071 42.5379 32.3307 42.4715 32.2372L40.2596 29.0974C40.1503 28.9383 40.1076 28.7427 40.1409 28.5525C40.1742 28.3624 40.2807 28.1929 40.4376 28.0804C40.5947 27.9717 40.7883 27.9295 40.9763 27.9628C41.1644 27.9961 41.3317 28.1023 41.4418 28.2584L43.6537 31.3982C43.7265 31.5081 43.7684 31.6354 43.7752 31.767C43.782 31.8986 43.7535 32.0297 43.6925 32.1465C43.6315 32.2633 43.5403 32.3616 43.4284 32.4312C43.3165 32.5008 43.188 32.5392 43.0563 32.5423Z" fill="#0449BB"/>
<rect x="0.5" y="0.5" width="59" height="59" rx="11.5" stroke="#E6E8EB"/>
</svg>
